<svg
 x="0px" y="0px"
 width="100%" viewBox="0 0 512 512" enable-background="new 0 0 512 512" xml:space="preserve">
<path fill="#000000" opacity="1.000000" stroke="none" 
	d="
M0.999998,94.000000 
	C1.000000,63.015713 1.000000,32.031422 1.000000,1.023567 
	C171.564453,1.023567 342.128906,1.023567 513.000000,1.023567 
	C513.000000,86.687317 513.000000,172.375000 512.751831,258.860840 
	C510.599304,258.112762 508.931458,255.942383 506.753784,255.117004 
	C485.039825,246.886902 463.232513,238.903458 441.470245,230.800262 
	C421.663757,223.425339 401.897522,215.942093 382.079620,208.598175 
	C372.101013,204.900406 362.047058,201.405945 352.002869,197.852829 
	C351.978577,197.886108 352.051758,197.924057 351.951477,197.646423 
	C351.290985,197.265869 350.730774,197.162949 349.993530,196.730896 
	C344.621613,192.585983 339.033447,191.620636 333.124634,194.453537 
	C326.605896,197.578857 323.983063,203.046707 323.985992,210.112137 
	C324.016785,284.002777 324.010529,357.893433 323.655060,431.881439 
	C313.318573,436.799713 306.748901,444.648438 302.445129,454.931396 
	C266.063812,454.947571 230.145248,454.939484 194.226715,454.965607 
	C165.127441,454.986786 136.028214,455.049103 106.465767,455.060974 
	C96.844826,455.019196 87.686989,454.981293 78.529350,455.007965 
	C69.392426,455.034576 61.525997,452.518860 54.956566,445.575348 
	C46.976273,437.140717 44.562054,425.887573 49.307652,414.413055 
	C53.179203,405.051910 63.957611,398.034363 74.488487,397.997070 
	C85.309410,397.958740 96.130257,397.902222 107.421188,397.902130 
	C141.381805,397.966675 174.872406,397.996124 208.362915,397.956818 
	C209.931473,397.954987 211.499313,397.340179 213.518463,397.008362 
	C217.100433,396.818970 220.310715,397.014984 223.350189,396.385864 
	C252.725220,390.305695 271.680359,361.737518 267.378052,332.126068 
	C263.630859,306.335602 238.332062,283.243958 212.760727,284.690430 
	C210.475098,284.260803 208.491470,284.020020 206.507462,284.016815 
	C182.013992,283.977020 157.520447,283.971893 133.045258,283.599976 
	C140.967041,270.055450 148.878891,256.873810 156.771957,243.680923 
	C167.635681,225.522614 178.469833,207.346588 189.345642,189.195541 
	C198.188126,174.437973 207.189743,159.805603 210.813690,142.593872 
	C214.386230,125.626190 215.152557,108.537766 211.689529,91.643188 
	C206.755280,67.571053 194.879578,47.390690 175.450836,31.812256 
	C155.381058,15.719841 132.801926,7.679122 106.534241,9.092786 
	C99.063148,9.681523 91.930481,9.727339 85.062286,11.098202 
	C58.413387,16.417217 37.173218,30.459404 20.977491,52.191868 
	C12.088285,64.119980 6.396391,77.517166 2.937663,91.933098 
	C2.746205,92.731094 1.666342,93.315941 0.999998,94.000000 
z"/>
<path fill="#000000" opacity="1.000000" stroke="none" 
	d="
M513.000000,272.000000 
	C513.000000,352.302582 513.000000,432.605194 513.000000,512.953857 
	C342.429382,512.953857 171.858734,512.953857 1.000000,512.953857 
	C1.000000,387.977509 1.000000,262.954773 1.369723,137.227341 
	C2.791179,140.207016 3.914794,143.872681 4.881670,147.579224 
	C8.290089,160.645432 14.478826,172.399200 21.364586,183.920883 
	C33.230396,203.775482 44.678589,223.879105 56.418503,243.809631 
	C69.067352,265.283234 81.855263,286.674927 94.570259,308.109619 
	C97.401817,312.882965 100.947281,316.452087 107.436890,315.931213 
	C108.890381,315.635864 109.993019,315.269440 111.551048,314.944855 
	C142.634308,314.991608 173.262329,314.954163 203.889908,315.051727 
	C208.004654,315.064850 212.186493,315.406158 216.218948,316.197937 
	C234.438400,319.775513 242.645004,339.825714 232.349030,355.236115 
	C226.099564,364.589996 216.485016,366.845612 206.291168,366.921906 
	C173.168915,367.169861 140.044083,367.071350 106.458694,367.068726 
	C102.667221,367.020844 99.337250,366.996582 96.007339,367.002594 
	C86.184509,367.020264 76.233223,366.037445 66.562973,367.264618 
	C37.494350,370.953491 15.660847,397.743622 15.806274,425.969971 
	C15.948607,453.595428 34.694801,478.001373 61.795990,484.119904 
	C76.762489,487.498810 91.888611,485.479492 107.415085,485.903137 
	C174.167252,485.964874 240.448578,485.979309 306.850342,486.337341 
	C314.801758,499.670502 326.407776,505.267822 341.439575,505.065216 
	C365.292725,504.743744 382.716980,482.840942 377.352692,457.824646 
	C374.608795,445.028625 366.343781,436.701538 355.043457,430.456573 
	C355.043243,402.007324 355.067322,374.021088 355.428589,345.894958 
	C374.249023,337.285767 392.752136,328.859589 411.208130,320.331360 
	C422.645050,315.046539 433.973328,309.526428 445.415924,304.254181 
	C465.530884,294.986053 485.714447,285.866608 505.817596,276.573120 
	C508.370789,275.392822 510.613464,273.540802 513.000000,272.000000 
z"/>
<path fill="#FF0125" opacity="1.000000" stroke="none" 
	d="
M107.086037,315.860107 
	C100.947281,316.452087 97.401817,312.882965 94.570259,308.109619 
	C81.855263,286.674927 69.067352,265.283234 56.418503,243.809631 
	C44.678589,223.879105 33.230396,203.775482 21.364586,183.920883 
	C14.478826,172.399200 8.290089,160.645432 4.881670,147.579224 
	C3.914794,143.872681 2.791179,140.207016 1.369723,136.761307 
	C1.000000,122.979103 1.000000,108.958214 0.999998,94.468658 
	C1.666342,93.315941 2.746205,92.731094 2.937663,91.933098 
	C6.396391,77.517166 12.088285,64.119980 20.977491,52.191868 
	C37.173218,30.459404 58.413387,16.417217 85.062286,11.098202 
	C91.930481,9.727339 99.063148,9.681523 106.535446,9.550855 
	C107.013969,31.194101 107.031364,52.313507 106.625549,73.598030 
	C78.039963,75.416832 59.601093,100.404510 67.011269,126.873466 
	C71.924767,144.424377 86.375389,155.384552 107.022263,157.687027 
	C107.031891,210.713867 107.058968,263.286987 107.086037,315.860107 
z"/>
<path fill="#FFC125" opacity="1.000000" stroke="none" 
	d="
M513.000000,271.536804 
	C510.613464,273.540802 508.370789,275.392822 505.817596,276.573120 
	C485.714447,285.866608 465.530884,294.986053 445.415924,304.254181 
	C433.973328,309.526428 422.645050,315.046539 411.208130,320.331360 
	C392.752136,328.859589 374.249023,337.285767 355.317322,345.434570 
	C354.835663,315.497955 355.228027,285.873047 354.618469,256.268799 
	C354.217285,236.783676 357.534119,217.086121 352.027191,197.819550 
	C362.047058,201.405945 372.101013,204.900406 382.079620,208.598175 
	C401.897522,215.942093 421.663757,223.425339 441.470245,230.800262 
	C463.232513,238.903458 485.039825,246.886902 506.753784,255.117004 
	C508.931458,255.942383 510.599304,258.112762 512.751831,259.329468 
	C513.000000,263.024536 513.000000,267.049103 513.000000,271.536804 
z"/>
<path fill="#BE2342" opacity="1.000000" stroke="none" 
	d="
M107.436890,315.931213 
	C107.058968,263.286987 107.031891,210.713867 106.946411,157.602966 
	C106.888000,157.065186 106.966591,156.852829 107.404419,156.932007 
	C134.993851,156.851135 154.769302,130.566147 147.413284,104.414413 
	C142.161163,85.742416 125.050140,72.847160 106.999069,73.841888 
	C106.969185,73.703880 107.048759,73.432915 107.048759,73.432915 
	C107.031364,52.313507 107.013969,31.194101 106.995361,9.616626 
	C132.801926,7.679122 155.381058,15.719841 175.450836,31.812256 
	C194.879578,47.390690 206.755280,67.571053 211.689529,91.643188 
	C215.152557,108.537766 214.386230,125.626190 210.813690,142.593872 
	C207.189743,159.805603 198.188126,174.437973 189.345642,189.195541 
	C178.469833,207.346588 167.635681,225.522614 156.771957,243.680923 
	C148.878891,256.873810 140.967041,270.055450 132.816895,283.703003 
	C132.267029,284.341766 132.066559,284.599548 131.686188,285.128174 
	C127.223114,292.247559 123.225456,299.296082 118.782890,306.052094 
	C116.654976,309.288086 113.684517,311.970093 111.095650,314.903015 
	C109.993019,315.269440 108.890381,315.635864 107.436890,315.931213 
z"/>
<path fill="#2D2D2D" opacity="1.000000" stroke="none" 
	d="
M111.551041,314.944855 
	C113.684517,311.970093 116.654976,309.288086 118.782890,306.052094 
	C123.225456,299.296082 127.223114,292.247559 132.155640,285.146545 
	C159.626007,284.979187 186.344284,284.984406 213.062561,284.989655 
	C238.332062,283.243958 263.630859,306.335602 267.378052,332.126068 
	C271.680359,361.737518 252.725220,390.305695 223.350189,396.385864 
	C220.310715,397.014984 217.100433,396.818970 213.043701,397.004700 
	C177.118347,396.975159 142.118698,396.946747 107.097343,396.455322 
	C107.023834,386.363617 106.972038,376.734924 106.920235,367.106232 
	C140.044083,367.071350 173.168915,367.169861 206.291168,366.921906 
	C216.485016,366.845612 226.099564,364.589996 232.349030,355.236115 
	C242.645004,339.825714 234.438400,319.775513 216.218948,316.197937 
	C212.186493,315.406158 208.004654,315.064850 203.889908,315.051727 
	C173.262329,314.954163 142.634308,314.991608 111.551041,314.944855 
z"/>
<path fill="#485B61" opacity="1.000000" stroke="none" 
	d="
M352.002869,197.852829 
	C357.534119,217.086121 354.217285,236.783676 354.618469,256.268799 
	C355.228027,285.873047 354.835663,315.497955 354.980164,345.574463 
	C355.067322,374.021088 355.043243,402.007324 354.643738,430.558411 
	C344.107666,427.861389 334.023682,428.110046 324.014526,431.784088 
	C324.010529,357.893433 324.016785,284.002777 323.985992,210.112137 
	C323.983063,203.046707 326.605896,197.578857 333.124634,194.453537 
	C339.033447,191.620636 344.621613,192.585983 350.138123,197.075867 
	C350.990387,197.807999 351.521057,197.866028 352.051758,197.924057 
	C352.051758,197.924057 351.978577,197.886108 352.002869,197.852829 
z"/>
<path fill="#475A61" opacity="1.000000" stroke="none" 
	d="
M106.458694,367.068726 
	C106.972038,376.734924 107.023834,386.363617 107.049835,396.688599 
	C107.024040,397.384888 106.951141,397.853668 106.951141,397.853668 
	C96.130257,397.902222 85.309410,397.958740 74.488487,397.997070 
	C63.957611,398.034363 53.179203,405.051910 49.307652,414.413055 
	C44.562054,425.887573 46.976273,437.140717 54.956566,445.575348 
	C61.525997,452.518860 69.392426,455.034576 78.529350,455.007965 
	C87.686989,454.981293 96.844826,455.019196 106.500076,455.521301 
	C107.039825,465.652100 107.082069,475.290436 107.073639,485.159851 
	C107.022964,485.390930 106.944252,485.855865 106.944252,485.855865 
	C91.888611,485.479492 76.762489,487.498810 61.795990,484.119904 
	C34.694801,478.001373 15.948607,453.595428 15.806274,425.969971 
	C15.660847,397.743622 37.494350,370.953491 66.562973,367.264618 
	C76.233223,366.037445 86.184509,367.020264 96.007339,367.002594 
	C99.337250,366.996582 102.667221,367.020844 106.458694,367.068726 
z"/>
<path fill="#2D2D2E" opacity="1.000000" stroke="none" 
	d="
M107.124313,484.928741 
	C107.082069,475.290436 107.039825,465.652100 106.963272,455.553467 
	C136.028214,455.049103 165.127441,454.986786 194.226715,454.965607 
	C230.145248,454.939484 266.063812,454.947571 302.585571,455.351929 
	C300.794769,465.835114 301.854187,475.563202 305.624054,484.980896 
	C239.140701,484.968201 173.132507,484.948456 107.124313,484.928741 
z"/>
<path fill="#0080FF" opacity="1.000000" stroke="none" 
	d="
M306.099213,484.973877 
	C301.854187,475.563202 300.794769,465.835114 303.048309,455.342407 
	C306.748901,444.648438 313.318573,436.799713 323.655060,431.881439 
	C334.023682,428.110046 344.107666,427.861389 354.668030,431.021454 
	C366.343781,436.701538 374.608795,445.028625 377.352692,457.824646 
	C382.716980,482.840942 365.292725,504.743744 341.439575,505.065216 
	C326.407776,505.267822 314.801758,499.670502 306.837921,486.122314 
	C306.594086,485.273682 306.392120,485.077087 306.099213,484.973877 
z"/>
<path fill="#394145" opacity="1.000000" stroke="none" 
	d="
M107.421188,397.902130 
	C106.951141,397.853668 107.024040,397.384888 107.071548,397.151611 
	C142.118698,396.946747 177.118347,396.975159 212.592743,397.007202 
	C211.499313,397.340179 209.931473,397.954987 208.362915,397.956818 
	C174.872406,397.996124 141.381805,397.966675 107.421188,397.902130 
z"/>
<path fill="#394145" opacity="1.000000" stroke="none" 
	d="
M212.760727,284.690430 
	C186.344284,284.984406 159.626007,284.979187 132.438263,284.955566 
	C132.066559,284.599548 132.267029,284.341766 132.798584,284.060852 
	C157.520447,283.971893 182.013992,283.977020 206.507462,284.016815 
	C208.491470,284.020020 210.475098,284.260803 212.760727,284.690430 
z"/>
<path fill="#FFC125" opacity="1.000000" stroke="none" 
	d="
M351.951477,197.646423 
	C351.521057,197.866028 350.990387,197.807999 350.315125,197.404999 
	C350.730774,197.162949 351.290985,197.265869 351.951477,197.646423 
z"/>
<path fill="#383F41" opacity="1.000000" stroke="none" 
	d="
M305.624054,484.980896 
	C306.392120,485.077087 306.594086,485.273682 306.717529,485.778687 
	C240.448578,485.979309 174.167252,485.964874 107.415085,485.903137 
	C106.944252,485.855865 107.022964,485.390930 107.073639,485.159851 
	C173.132507,484.948456 239.140701,484.968201 305.624054,484.980896 
z"/>
<path fill="#FFFDFE" opacity="1.000000" stroke="none" 
	d="
M106.963852,157.149246 
	C86.375389,155.384552 71.924767,144.424377 67.011269,126.873466 
	C59.601093,100.404510 78.039963,75.416832 106.625549,73.598030 
	C107.048759,73.432915 106.969185,73.703880 106.991272,74.311996 
	C106.997772,102.231010 106.982178,129.541916 106.966583,156.852829 
	C106.966591,156.852829 106.888000,157.065186 106.963852,157.149246 
z"/>
<path fill="#FFF4F4" opacity="1.000000" stroke="none" 
	d="
M107.404419,156.932007 
	C106.982178,129.541916 106.997772,102.231010 107.021164,74.450005 
	C125.050140,72.847160 142.161163,85.742416 147.413284,104.414413 
	C154.769302,130.566147 134.993851,156.851135 107.404419,156.932007 
z"/>
</svg>