<?xml version="1.0" encoding="UTF-8"?>
<svg width="256px" height="256px" viewBox="0 0 256 256" version="1.1" xmlns="http://www.w3.org/2000/svg" xmlns:xlink="http://www.w3.org/1999/xlink">
    <title>ic_stationary_pointer_logo copy 6</title>
    <g id="ic_stationary_pointer_logo-copy-6" stroke="none" stroke-width="1" fill="none" fill-rule="evenodd">
        <g id="3707918" transform="translate(76.000000, 21.000000)">
            <path d="M88.3431173,215 L16.0747744,215 C7.34266988,214.959825 -0.0372462582,207.478408 0,198.705652 L0.769185614,15.8233753 C0.806054038,7.04487993 7.9201021,-0.0400049679 16.6568801,0 L89.2580774,0.3372225 C97.9901819,0.377397486 105.036724,7.52124048 105,16.2945183 L104.230293,199.176795 C104.193424,207.95529 97.079376,215.040175 88.3431173,215" id="Fill-36" fill="#BBBBBB"></path>
            <path d="M89.9015681,7.33648264 L75.7304132,7.27129596 C73.8301569,7.26243057 72.2822452,8.86237263 72.2744037,10.8435264 L72.2629029,13.40771 C72.2550614,15.3893853 70.7071497,16.9893273 68.8074161,16.9804619 L41.1849558,16.8532175 C39.2846995,16.8448736 37.7509026,15.2308513 37.7592668,13.2491759 L37.7702449,10.6849924 C37.7786092,8.70279561 36.2448122,7.08929472 34.3440331,7.08042933 L29.3604999,7.05696213 L16.9578641,7 C10.7981062,6.97195869 5.78216138,11.9313619 5.75602305,18.0766413 L5,196.493127 C4.97396434,202.635799 9.94233737,207.635357 16.0984359,207.664039 L89.0421399,208 C95.2013751,208.028041 100.21732,203.06916 100.243981,196.92388 L101,18.5063519 C101.025517,12.364723 96.0576667,7.36464329 89.9015681,7.33648264" id="Fill-37" fill="#F1F0EC"></path>
            <path d="M83.5,47 C79.357461,47 76,43.6422513 76,39.5006425 C76,35.3577487 79.357461,32 83.5,32 C87.6412541,32 91,35.3577487 91,39.5006425 C91,43.6422513 87.6412541,47 83.5,47 Z" id="Fill-95" fill="#BBBBBB"></path>
        </g>
        <polyline id="Path-2" stroke="#BBBBBB" stroke-width="2" stroke-linecap="round" stroke-linejoin="round" points="158.578768 63.061478 140.724466 83.2947405 142.505586 92.3181205 159.910623 116.466506 167.882274 123.330506 170.803272 139.126904 172.537865 161.121393 169.67535 177.219971 155.608069 195.25341 145.988977 214.459966 125.160162 207.267867 118.354876 212.441866 111.02338 207.937795 97.3355724 186.447471 118.354876 173.766915 118.354876 165.253526 108 150.5"></polyline>
        <circle id="Oval" stroke="#BBBBBB" fill="#FFFFFF" cx="104.5" cy="147.5" r="7"></circle>
    </g>
</svg>