<?xml version="1.0" encoding="UTF-8"?>
<svg width="256px" height="256px" viewBox="0 0 256 256" version="1.1" xmlns="http://www.w3.org/2000/svg" xmlns:xlink="http://www.w3.org/1999/xlink">
    <title>ic_stationary_pointer_logo copy 4</title>
    <g id="ic_stationary_pointer_logo-copy-4" stroke="none" stroke-width="1" fill="none" fill-rule="evenodd">
        <g id="moon" transform="translate(27.000000, 28.000000)">
            <path d="M200,99.9999242 C199.987754,154.456327 156.406673,198.891745 101.963591,199.958182 C101.338625,200 100.671994,200 100.005363,200 C90.3088583,200.016882 80.663214,198.598743 71.3818984,195.791518 C25.9935658,182.247159 -3.65845877,138.705772 0.364339931,91.5084881 C4.38713863,44.3112039 40.9802421,6.41673101 88.0060068,0.749999431 C95.9743294,-0.24999981 104.036397,-0.24999981 112.00472,0.749999431 C120.75874,1.77933677 129.334914,3.97954985 137.503352,7.29166114 C140.336533,8.45832692 143.12805,9.70832597 145.836238,11.1249916 C148.66942,12.5833238 151.460937,14.2083226 154.169125,15.9583212 C157.043971,17.8333198 159.835488,19.8333183 162.502011,21.9583167 C174.850131,31.8663853 184.673748,44.5606547 191.16714,58.9999553 C195.801722,69.1754068 198.66224,80.0684982 199.62502,91.2082642 C199.875007,94.083262 200,97.0415931 200,99.9999242 L200,99.9999242 Z" id="Path" fill="#D1D3D4"></path>
            <g id="location" transform="translate(1.785714, 0.000000)">
                <path d="M160.214934,21.4285714 C159.761579,98.8764396 97.0907253,161.547293 19.6428571,162.000649 C43.5493293,192.228811 82.689541,206.041813 120.272503,197.517391 C157.857151,188.991283 187.205568,159.642865 195.731676,122.058217 C204.256099,84.4752552 190.443096,45.3350436 160.214934,21.4285714 Z" id="Path" fill="#BCBEC0"></path>
                <path d="M29.3613736,29.3613736 C-6.62975108,65.3524978 -9.93559228,122.605349 21.6741945,162.5 C99.2618537,162.045826 162.045826,99.2618537 162.5,21.6741945 C122.605349,-9.93559228 65.3524978,-6.62975108 29.3613736,29.3613736 Z" id="Path" fill="#D1D3D4"></path>
                <path d="M148.880676,41.704216 C141.288477,45.082488 137.098174,41.0971828 131.703452,45.082488 C125.03889,50.0146328 122.359981,62.7854247 128.268007,72.1086635 C132.449923,78.6771589 139.948184,80.3250563 148.414341,82.1428571 C156.982823,64.8572556 161.780368,46.0029349 162.5,26.7857143 C160.002257,33.2502885 155.147678,38.5684275 148.880676,41.704216 Z" id="Path" fill="#BCBEC0"></path>
                <path d="M160.934969,25.109343 C160.195482,44.6807655 155.252317,63.8825993 146.428571,81.4868002 L146.922715,81.5892771 C159.060333,84.1696809 163.766792,78.6997623 175.230578,81.5892771 C180.344792,83.0155549 185.142823,85.3490059 189.38451,88.4703541 C194.300029,92.4131979 197.93354,97.6596828 199.841004,103.571429 C199.918753,101.985555 200.000041,100.399682 200.000041,98.7919697 C200.027603,68.7779747 186.127655,40.3548934 162.170328,21.4285714 C161.85069,22.6834945 161.437751,23.9132182 160.934969,25.109343 Z" id="Path" fill="#D1D3D4"></path>
                <path d="M94.6582993,140.687727 C101.485057,148.328338 103.278028,161.238161 98.1061908,168.599383 C93.9007057,174.601139 88.1429967,172.541496 84.3146247,179.066254 C81.4189346,184.512638 81.4189346,191.066358 84.3146247,196.511039 C84.8466236,197.495716 85.4813184,198.417359 86.208608,199.264044 C90.156511,199.746161 94.1296673,199.991478 98.1061908,200 C134.568317,200.010217 168.141487,179.928272 185.714286,147.5992 C179.443096,143.353848 169.646573,137.737105 160.168238,137.19877 C150.454208,136.237943 140.709874,138.703042 132.585106,144.176684 C122.414836,151.713376 120.41479,162.389789 115.345648,161.621469 C111.759706,161.098466 109.795015,155.236405 108.449865,151.154598 C105.370669,141.859798 107.040742,135.570135 107.012122,130.357143 C102.801586,133.766031 98.402494,136.927898 93.835048,139.825709 C94.1902752,140.178352 94.4832111,140.49011 94.6582993,140.687727 Z" id="Path" fill="#D1D3D4"></path>
                <path d="M103.377719,123.844885 C99.9027622,118.887123 93.424084,117.957437 86.5054751,116.958823 C71.9960043,114.892669 66.2933831,121.262612 59.5098842,116.958823 C53.9819173,113.203095 51.296199,106.3557 52.7609865,99.7436681 C55.5966438,91.1024671 67.9806075,94.0293797 83.1310262,82.5285129 C88.0246364,78.8450748 99.6654962,69.9970905 100.003271,58.4272956 C100.341045,47.0995887 89.5091961,43.8633414 86.5054751,30.8830472 C85.2005125,25.2914843 87.6357835,12.4322338 93.8079934,0 C57.4815899,1.04736746 24.7191186,22.5545432 8.72508809,55.8483848 L8.72508809,55.8803267 C6.56003621,68.1125014 6.61770512,80.6472863 8.89315125,92.857606 C10.9527516,106.733962 12.8409928,119.334313 22.3909467,130.730947 C26.5760542,135.757638 33.0201312,143.401907 42.6376399,144.503072 C53.3014256,145.708469 67.3726137,138.753479 69.6332308,137.61701 C72.6567239,135.591203 76.1465102,134.404298 79.7565774,134.173979 C84.5809847,134.488357 89.1121048,136.641932 92.4486574,140.20937 C96.9188134,137.349704 101.224201,134.229457 105.34505,130.865441 C105.45874,128.368907 104.768361,125.902634 103.377719,123.844885 Z" id="Path" fill="#BCBEC0"></path>
            </g>
            <path d="M162.5,21.4306323 L162.5,82.1428571 L144.642857,82.1428571 L144.642857,10.7142857 C147.678571,12.1568708 150.669643,13.7643228 153.571429,15.4954249 C156.651786,17.3501772 159.642857,19.3285797 162.5,21.4306323 Z" id="Path" fill="#BCBEC0"></path>
        </g>
    </g>
</svg>